<mxfile host="app.diagrams.net" agent="Mozilla/5.0 (Windows NT 10.0; Win64; x64) AppleWebKit/537.36 (KHTML, like Gecko) Chrome/133.0.0.0 Safari/537.36" version="26.0.16">
  <diagram name="Page-1" id="XMIAPNUkG7fCaQ67OpIX">
    <mxGraphModel dx="2357" dy="1948" grid="1" gridSize="10" guides="1" tooltips="1" connect="1" arrows="1" fold="1" page="1" pageScale="1" pageWidth="850" pageHeight="1100" math="0" shadow="0">
      <root>
        <mxCell id="0" />
        <mxCell id="1" parent="0" />
        <mxCell id="qMw9UD0LHdUUSkF86hwJ-1" value="RCD&lt;div&gt;&lt;font style=&quot;font-size: 20px;&quot;&gt;(DDR)&lt;/font&gt;&lt;/div&gt;" style="rounded=0;whiteSpace=wrap;html=1;fillColor=#f5f5f5;fontColor=#333333;strokeColor=#666666;fontStyle=1;fontSize=34;" vertex="1" parent="1">
          <mxGeometry x="290" y="200" width="180" height="191" as="geometry" />
        </mxCell>
        <mxCell id="qMw9UD0LHdUUSkF86hwJ-3" value="" style="endArrow=none;dashed=1;html=1;rounded=0;" edge="1" parent="1">
          <mxGeometry width="50" height="50" relative="1" as="geometry">
            <mxPoint x="-9" y="413" as="sourcePoint" />
            <mxPoint x="-9" y="163" as="targetPoint" />
          </mxGeometry>
        </mxCell>
        <mxCell id="qMw9UD0LHdUUSkF86hwJ-4" value="" style="endArrow=none;dashed=1;html=1;rounded=0;" edge="1" parent="1">
          <mxGeometry width="50" height="50" relative="1" as="geometry">
            <mxPoint x="51" y="413" as="sourcePoint" />
            <mxPoint x="51" y="163" as="targetPoint" />
          </mxGeometry>
        </mxCell>
        <mxCell id="qMw9UD0LHdUUSkF86hwJ-5" value="" style="endArrow=none;dashed=1;html=1;rounded=0;" edge="1" parent="1">
          <mxGeometry width="50" height="50" relative="1" as="geometry">
            <mxPoint x="111" y="413" as="sourcePoint" />
            <mxPoint x="111" y="163" as="targetPoint" />
          </mxGeometry>
        </mxCell>
        <mxCell id="qMw9UD0LHdUUSkF86hwJ-10" value="" style="endArrow=none;dashed=1;html=1;rounded=0;" edge="1" parent="1">
          <mxGeometry width="50" height="50" relative="1" as="geometry">
            <mxPoint x="-129" y="413" as="sourcePoint" />
            <mxPoint x="-129" y="160" as="targetPoint" />
          </mxGeometry>
        </mxCell>
        <mxCell id="qMw9UD0LHdUUSkF86hwJ-16" value="" style="endArrow=classic;html=1;rounded=0;strokeColor=#0a0a0a;strokeWidth=3;endFill=1;" edge="1" parent="1">
          <mxGeometry width="50" height="50" relative="1" as="geometry">
            <mxPoint x="-139" y="241" as="sourcePoint" />
            <mxPoint x="-119" y="201" as="targetPoint" />
          </mxGeometry>
        </mxCell>
        <mxCell id="qMw9UD0LHdUUSkF86hwJ-17" value="" style="endArrow=none;html=1;rounded=0;strokeColor=#0a0a0a;strokeWidth=3;" edge="1" parent="1">
          <mxGeometry width="50" height="50" relative="1" as="geometry">
            <mxPoint x="-119" y="201" as="sourcePoint" />
            <mxPoint x="-79" y="201" as="targetPoint" />
          </mxGeometry>
        </mxCell>
        <mxCell id="qMw9UD0LHdUUSkF86hwJ-18" value="" style="endArrow=none;html=1;rounded=0;strokeColor=#0a0a0a;strokeWidth=3;" edge="1" parent="1">
          <mxGeometry width="50" height="50" relative="1" as="geometry">
            <mxPoint x="-59" y="241" as="sourcePoint" />
            <mxPoint x="-79" y="201" as="targetPoint" />
          </mxGeometry>
        </mxCell>
        <mxCell id="qMw9UD0LHdUUSkF86hwJ-19" value="" style="endArrow=none;html=1;rounded=0;strokeColor=#0a0a0a;strokeWidth=3;" edge="1" parent="1">
          <mxGeometry width="50" height="50" relative="1" as="geometry">
            <mxPoint x="-59" y="241" as="sourcePoint" />
            <mxPoint x="-19" y="241" as="targetPoint" />
          </mxGeometry>
        </mxCell>
        <mxCell id="qMw9UD0LHdUUSkF86hwJ-20" value="" style="endArrow=classic;html=1;rounded=0;strokeColor=#0a0a0a;strokeWidth=3;endFill=1;" edge="1" parent="1">
          <mxGeometry width="50" height="50" relative="1" as="geometry">
            <mxPoint x="-19" y="241" as="sourcePoint" />
            <mxPoint x="1" y="201" as="targetPoint" />
          </mxGeometry>
        </mxCell>
        <mxCell id="qMw9UD0LHdUUSkF86hwJ-21" value="" style="endArrow=none;html=1;rounded=0;strokeColor=#0a0a0a;strokeWidth=3;" edge="1" parent="1">
          <mxGeometry width="50" height="50" relative="1" as="geometry">
            <mxPoint x="1" y="201" as="sourcePoint" />
            <mxPoint x="41" y="201" as="targetPoint" />
          </mxGeometry>
        </mxCell>
        <mxCell id="qMw9UD0LHdUUSkF86hwJ-22" value="" style="endArrow=none;html=1;rounded=0;strokeColor=#0a0a0a;strokeWidth=3;" edge="1" parent="1">
          <mxGeometry width="50" height="50" relative="1" as="geometry">
            <mxPoint x="61" y="241" as="sourcePoint" />
            <mxPoint x="41" y="201" as="targetPoint" />
          </mxGeometry>
        </mxCell>
        <mxCell id="qMw9UD0LHdUUSkF86hwJ-23" value="" style="endArrow=none;html=1;rounded=0;strokeColor=#0a0a0a;strokeWidth=3;" edge="1" parent="1">
          <mxGeometry width="50" height="50" relative="1" as="geometry">
            <mxPoint x="61" y="241" as="sourcePoint" />
            <mxPoint x="101" y="241" as="targetPoint" />
          </mxGeometry>
        </mxCell>
        <mxCell id="qMw9UD0LHdUUSkF86hwJ-24" value="" style="endArrow=classic;html=1;rounded=0;strokeColor=#0a0a0a;strokeWidth=3;endFill=1;" edge="1" parent="1">
          <mxGeometry width="50" height="50" relative="1" as="geometry">
            <mxPoint x="101" y="241" as="sourcePoint" />
            <mxPoint x="121" y="201" as="targetPoint" />
          </mxGeometry>
        </mxCell>
        <mxCell id="qMw9UD0LHdUUSkF86hwJ-25" value="" style="endArrow=none;html=1;rounded=0;strokeColor=#0a0a0a;strokeWidth=3;" edge="1" parent="1">
          <mxGeometry width="50" height="50" relative="1" as="geometry">
            <mxPoint x="121" y="201" as="sourcePoint" />
            <mxPoint x="161" y="201" as="targetPoint" />
          </mxGeometry>
        </mxCell>
        <mxCell id="qMw9UD0LHdUUSkF86hwJ-33" value="" style="endArrow=none;html=1;rounded=0;strokeColor=#0a0a0a;strokeWidth=3;" edge="1" parent="1">
          <mxGeometry width="50" height="50" relative="1" as="geometry">
            <mxPoint x="-179" y="241" as="sourcePoint" />
            <mxPoint x="-139" y="241" as="targetPoint" />
          </mxGeometry>
        </mxCell>
        <mxCell id="qMw9UD0LHdUUSkF86hwJ-34" value="" style="endArrow=none;html=1;rounded=0;strokeColor=#0a0a0a;strokeWidth=3;dashed=1;" edge="1" parent="1">
          <mxGeometry width="50" height="50" relative="1" as="geometry">
            <mxPoint x="-178" y="201" as="sourcePoint" />
            <mxPoint x="-138" y="201" as="targetPoint" />
          </mxGeometry>
        </mxCell>
        <mxCell id="qMw9UD0LHdUUSkF86hwJ-35" value="" style="endArrow=none;html=1;rounded=0;strokeColor=#0a0a0a;strokeWidth=3;dashed=1;" edge="1" parent="1">
          <mxGeometry width="50" height="50" relative="1" as="geometry">
            <mxPoint x="-118" y="241" as="sourcePoint" />
            <mxPoint x="-138" y="201" as="targetPoint" />
          </mxGeometry>
        </mxCell>
        <mxCell id="qMw9UD0LHdUUSkF86hwJ-36" value="" style="endArrow=none;html=1;rounded=0;strokeColor=#0a0a0a;strokeWidth=3;dashed=1;" edge="1" parent="1">
          <mxGeometry width="50" height="50" relative="1" as="geometry">
            <mxPoint x="-118" y="241" as="sourcePoint" />
            <mxPoint x="-78" y="241" as="targetPoint" />
          </mxGeometry>
        </mxCell>
        <mxCell id="qMw9UD0LHdUUSkF86hwJ-37" value="" style="endArrow=none;html=1;rounded=0;strokeColor=#0a0a0a;strokeWidth=3;dashed=1;" edge="1" parent="1">
          <mxGeometry width="50" height="50" relative="1" as="geometry">
            <mxPoint x="-78" y="241" as="sourcePoint" />
            <mxPoint x="-58" y="201" as="targetPoint" />
          </mxGeometry>
        </mxCell>
        <mxCell id="qMw9UD0LHdUUSkF86hwJ-38" value="" style="endArrow=none;html=1;rounded=0;strokeColor=#0a0a0a;strokeWidth=3;dashed=1;" edge="1" parent="1">
          <mxGeometry width="50" height="50" relative="1" as="geometry">
            <mxPoint x="-58" y="201" as="sourcePoint" />
            <mxPoint x="-18" y="201" as="targetPoint" />
          </mxGeometry>
        </mxCell>
        <mxCell id="qMw9UD0LHdUUSkF86hwJ-39" value="" style="endArrow=none;html=1;rounded=0;strokeColor=#0a0a0a;strokeWidth=3;dashed=1;" edge="1" parent="1">
          <mxGeometry width="50" height="50" relative="1" as="geometry">
            <mxPoint x="2" y="241" as="sourcePoint" />
            <mxPoint x="-18" y="201" as="targetPoint" />
          </mxGeometry>
        </mxCell>
        <mxCell id="qMw9UD0LHdUUSkF86hwJ-40" value="" style="endArrow=none;html=1;rounded=0;strokeColor=#0a0a0a;strokeWidth=3;dashed=1;" edge="1" parent="1">
          <mxGeometry width="50" height="50" relative="1" as="geometry">
            <mxPoint x="2" y="241" as="sourcePoint" />
            <mxPoint x="42" y="241" as="targetPoint" />
          </mxGeometry>
        </mxCell>
        <mxCell id="qMw9UD0LHdUUSkF86hwJ-41" value="" style="endArrow=none;html=1;rounded=0;strokeColor=#0a0a0a;strokeWidth=3;dashed=1;" edge="1" parent="1">
          <mxGeometry width="50" height="50" relative="1" as="geometry">
            <mxPoint x="42" y="241" as="sourcePoint" />
            <mxPoint x="62" y="201" as="targetPoint" />
          </mxGeometry>
        </mxCell>
        <mxCell id="qMw9UD0LHdUUSkF86hwJ-42" value="" style="endArrow=none;html=1;rounded=0;strokeColor=#0a0a0a;strokeWidth=3;dashed=1;" edge="1" parent="1">
          <mxGeometry width="50" height="50" relative="1" as="geometry">
            <mxPoint x="62" y="201" as="sourcePoint" />
            <mxPoint x="102" y="201" as="targetPoint" />
          </mxGeometry>
        </mxCell>
        <mxCell id="qMw9UD0LHdUUSkF86hwJ-43" value="" style="endArrow=none;html=1;rounded=0;strokeColor=#0a0a0a;strokeWidth=3;dashed=1;" edge="1" parent="1">
          <mxGeometry width="50" height="50" relative="1" as="geometry">
            <mxPoint x="122" y="241" as="sourcePoint" />
            <mxPoint x="102" y="201" as="targetPoint" />
          </mxGeometry>
        </mxCell>
        <mxCell id="qMw9UD0LHdUUSkF86hwJ-44" value="" style="endArrow=none;html=1;rounded=0;strokeColor=#0a0a0a;strokeWidth=3;dashed=1;" edge="1" parent="1">
          <mxGeometry width="50" height="50" relative="1" as="geometry">
            <mxPoint x="122" y="241" as="sourcePoint" />
            <mxPoint x="162" y="241" as="targetPoint" />
          </mxGeometry>
        </mxCell>
        <mxCell id="qMw9UD0LHdUUSkF86hwJ-122" value="DCK_c" style="text;html=1;align=center;verticalAlign=middle;whiteSpace=wrap;rounded=0;fontStyle=1" vertex="1" parent="1">
          <mxGeometry x="-239" y="191" width="60" height="20" as="geometry" />
        </mxCell>
        <mxCell id="qMw9UD0LHdUUSkF86hwJ-123" value="DCK_t" style="text;html=1;align=center;verticalAlign=middle;whiteSpace=wrap;rounded=0;fontStyle=1" vertex="1" parent="1">
          <mxGeometry x="-239" y="231" width="60" height="20" as="geometry" />
        </mxCell>
        <mxCell id="qMw9UD0LHdUUSkF86hwJ-124" value="DCS_n" style="text;html=1;align=center;verticalAlign=middle;whiteSpace=wrap;rounded=0;fontColor=#3399FF;fontStyle=1" vertex="1" parent="1">
          <mxGeometry x="-239" y="271" width="60" height="20" as="geometry" />
        </mxCell>
        <mxCell id="qMw9UD0LHdUUSkF86hwJ-168" value="DCA[6:0]" style="text;html=1;align=center;verticalAlign=middle;whiteSpace=wrap;rounded=0;fontColor=#FFB570;fontStyle=1" vertex="1" parent="1">
          <mxGeometry x="-237" y="331" width="60" height="20" as="geometry" />
        </mxCell>
        <mxCell id="qMw9UD0LHdUUSkF86hwJ-190" value="" style="endArrow=none;dashed=1;html=1;rounded=0;" edge="1" parent="1">
          <mxGeometry width="50" height="50" relative="1" as="geometry">
            <mxPoint x="-69" y="413" as="sourcePoint" />
            <mxPoint x="-69.34" y="162" as="targetPoint" />
          </mxGeometry>
        </mxCell>
        <mxCell id="qMw9UD0LHdUUSkF86hwJ-196" value="" style="endArrow=none;html=1;rounded=0;strokeColor=#d79b00;strokeWidth=3;fillColor=#ffe6cc;" edge="1" parent="1">
          <mxGeometry width="50" height="50" relative="1" as="geometry">
            <mxPoint x="-29.5" y="371" as="sourcePoint" />
            <mxPoint x="-49.5" y="331" as="targetPoint" />
          </mxGeometry>
        </mxCell>
        <mxCell id="qMw9UD0LHdUUSkF86hwJ-197" value="" style="endArrow=none;html=1;rounded=0;strokeColor=#d79b00;strokeWidth=3;fillColor=#ffe6cc;" edge="1" parent="1">
          <mxGeometry width="50" height="50" relative="1" as="geometry">
            <mxPoint x="-29.5" y="371" as="sourcePoint" />
            <mxPoint x="10.5" y="371" as="targetPoint" />
          </mxGeometry>
        </mxCell>
        <mxCell id="qMw9UD0LHdUUSkF86hwJ-198" value="" style="endArrow=none;html=1;rounded=0;strokeColor=#d79b00;strokeWidth=3;fillColor=#ffe6cc;" edge="1" parent="1">
          <mxGeometry width="50" height="50" relative="1" as="geometry">
            <mxPoint x="10.5" y="371" as="sourcePoint" />
            <mxPoint x="30.5" y="331" as="targetPoint" />
          </mxGeometry>
        </mxCell>
        <mxCell id="qMw9UD0LHdUUSkF86hwJ-199" value="" style="endArrow=none;html=1;rounded=0;strokeColor=#d79b00;strokeWidth=3;fillColor=#ffe6cc;" edge="1" parent="1">
          <mxGeometry width="50" height="50" relative="1" as="geometry">
            <mxPoint x="30.5" y="331" as="sourcePoint" />
            <mxPoint x="70.5" y="331" as="targetPoint" />
          </mxGeometry>
        </mxCell>
        <mxCell id="qMw9UD0LHdUUSkF86hwJ-200" value="" style="endArrow=none;html=1;rounded=0;strokeColor=#d79b00;strokeWidth=3;fillColor=#ffe6cc;" edge="1" parent="1">
          <mxGeometry width="50" height="50" relative="1" as="geometry">
            <mxPoint x="79" y="356" as="sourcePoint" />
            <mxPoint x="70.5" y="330" as="targetPoint" />
          </mxGeometry>
        </mxCell>
        <mxCell id="qMw9UD0LHdUUSkF86hwJ-207" value="" style="endArrow=none;html=1;rounded=0;strokeColor=#d79b00;strokeWidth=3;fillColor=#ffe6cc;" edge="1" parent="1">
          <mxGeometry width="50" height="50" relative="1" as="geometry">
            <mxPoint x="-41.5" y="352" as="sourcePoint" />
            <mxPoint x="-26.5" y="330" as="targetPoint" />
          </mxGeometry>
        </mxCell>
        <mxCell id="qMw9UD0LHdUUSkF86hwJ-208" value="" style="endArrow=none;html=1;rounded=0;strokeColor=#d79b00;strokeWidth=3;fillColor=#ffe6cc;" edge="1" parent="1">
          <mxGeometry width="50" height="50" relative="1" as="geometry">
            <mxPoint x="-28.5" y="331" as="sourcePoint" />
            <mxPoint x="11.5" y="331" as="targetPoint" />
          </mxGeometry>
        </mxCell>
        <mxCell id="qMw9UD0LHdUUSkF86hwJ-209" value="" style="endArrow=none;html=1;rounded=0;strokeColor=#d79b00;strokeWidth=3;fillColor=#ffe6cc;" edge="1" parent="1">
          <mxGeometry width="50" height="50" relative="1" as="geometry">
            <mxPoint x="31.5" y="371" as="sourcePoint" />
            <mxPoint x="11.5" y="331" as="targetPoint" />
          </mxGeometry>
        </mxCell>
        <mxCell id="qMw9UD0LHdUUSkF86hwJ-210" value="" style="endArrow=none;html=1;rounded=0;strokeColor=#d79b00;strokeWidth=3;fillColor=#ffe6cc;" edge="1" parent="1">
          <mxGeometry width="50" height="50" relative="1" as="geometry">
            <mxPoint x="31.5" y="371" as="sourcePoint" />
            <mxPoint x="71.5" y="371" as="targetPoint" />
          </mxGeometry>
        </mxCell>
        <mxCell id="qMw9UD0LHdUUSkF86hwJ-211" value="" style="endArrow=none;html=1;rounded=0;strokeColor=#d79b00;strokeWidth=3;fillColor=#ffe6cc;" edge="1" parent="1">
          <mxGeometry width="50" height="50" relative="1" as="geometry">
            <mxPoint x="71.5" y="371" as="sourcePoint" />
            <mxPoint x="91.5" y="331" as="targetPoint" />
          </mxGeometry>
        </mxCell>
        <mxCell id="qMw9UD0LHdUUSkF86hwJ-216" value="A" style="text;html=1;align=center;verticalAlign=middle;whiteSpace=wrap;rounded=0;fontStyle=1;strokeColor=#d79b00;fillColor=#ffe6cc;" vertex="1" parent="1">
          <mxGeometry x="-28.5" y="341" width="40" height="20" as="geometry" />
        </mxCell>
        <mxCell id="qMw9UD0LHdUUSkF86hwJ-217" value="B" style="text;html=1;align=center;verticalAlign=middle;whiteSpace=wrap;rounded=0;fontStyle=1;strokeColor=#d79b00;fillColor=#ffe6cc;" vertex="1" parent="1">
          <mxGeometry x="31.5" y="341" width="40" height="20" as="geometry" />
        </mxCell>
        <mxCell id="qMw9UD0LHdUUSkF86hwJ-219" value="" style="endArrow=none;html=1;rounded=0;strokeColor=#d79b00;strokeWidth=3;fillColor=#ffe6cc;" edge="1" parent="1">
          <mxGeometry width="50" height="50" relative="1" as="geometry">
            <mxPoint x="-144" y="332" as="sourcePoint" />
            <mxPoint x="-49" y="332" as="targetPoint" />
          </mxGeometry>
        </mxCell>
        <mxCell id="qMw9UD0LHdUUSkF86hwJ-220" value="" style="endArrow=none;html=1;rounded=0;strokeColor=#d79b00;strokeWidth=3;fillColor=#ffe6cc;" edge="1" parent="1">
          <mxGeometry width="50" height="50" relative="1" as="geometry">
            <mxPoint x="90" y="331" as="sourcePoint" />
            <mxPoint x="185" y="331" as="targetPoint" />
          </mxGeometry>
        </mxCell>
        <mxCell id="qMw9UD0LHdUUSkF86hwJ-221" value="" style="endArrow=none;dashed=1;html=1;rounded=0;" edge="1" parent="1">
          <mxGeometry width="50" height="50" relative="1" as="geometry">
            <mxPoint x="740" y="422" as="sourcePoint" />
            <mxPoint x="740" y="172" as="targetPoint" />
          </mxGeometry>
        </mxCell>
        <mxCell id="qMw9UD0LHdUUSkF86hwJ-222" value="" style="endArrow=none;dashed=1;html=1;rounded=0;" edge="1" parent="1">
          <mxGeometry width="50" height="50" relative="1" as="geometry">
            <mxPoint x="800" y="422" as="sourcePoint" />
            <mxPoint x="800" y="172" as="targetPoint" />
          </mxGeometry>
        </mxCell>
        <mxCell id="qMw9UD0LHdUUSkF86hwJ-223" value="" style="endArrow=none;dashed=1;html=1;rounded=0;" edge="1" parent="1">
          <mxGeometry width="50" height="50" relative="1" as="geometry">
            <mxPoint x="860" y="422" as="sourcePoint" />
            <mxPoint x="860" y="172" as="targetPoint" />
          </mxGeometry>
        </mxCell>
        <mxCell id="qMw9UD0LHdUUSkF86hwJ-224" value="" style="endArrow=none;dashed=1;html=1;rounded=0;" edge="1" parent="1">
          <mxGeometry width="50" height="50" relative="1" as="geometry">
            <mxPoint x="620" y="422" as="sourcePoint" />
            <mxPoint x="620" y="169" as="targetPoint" />
          </mxGeometry>
        </mxCell>
        <mxCell id="qMw9UD0LHdUUSkF86hwJ-225" value="" style="endArrow=classic;html=1;rounded=0;strokeColor=#0a0a0a;strokeWidth=3;endFill=1;" edge="1" parent="1">
          <mxGeometry width="50" height="50" relative="1" as="geometry">
            <mxPoint x="610" y="250" as="sourcePoint" />
            <mxPoint x="630" y="210" as="targetPoint" />
          </mxGeometry>
        </mxCell>
        <mxCell id="qMw9UD0LHdUUSkF86hwJ-226" value="" style="endArrow=none;html=1;rounded=0;strokeColor=#0a0a0a;strokeWidth=3;" edge="1" parent="1">
          <mxGeometry width="50" height="50" relative="1" as="geometry">
            <mxPoint x="630" y="210" as="sourcePoint" />
            <mxPoint x="670" y="210" as="targetPoint" />
          </mxGeometry>
        </mxCell>
        <mxCell id="qMw9UD0LHdUUSkF86hwJ-227" value="" style="endArrow=none;html=1;rounded=0;strokeColor=#0a0a0a;strokeWidth=3;" edge="1" parent="1">
          <mxGeometry width="50" height="50" relative="1" as="geometry">
            <mxPoint x="690" y="250" as="sourcePoint" />
            <mxPoint x="670" y="210" as="targetPoint" />
          </mxGeometry>
        </mxCell>
        <mxCell id="qMw9UD0LHdUUSkF86hwJ-228" value="" style="endArrow=none;html=1;rounded=0;strokeColor=#0a0a0a;strokeWidth=3;" edge="1" parent="1">
          <mxGeometry width="50" height="50" relative="1" as="geometry">
            <mxPoint x="690" y="250" as="sourcePoint" />
            <mxPoint x="730" y="250" as="targetPoint" />
          </mxGeometry>
        </mxCell>
        <mxCell id="qMw9UD0LHdUUSkF86hwJ-229" value="" style="endArrow=classic;html=1;rounded=0;strokeColor=#0a0a0a;strokeWidth=3;endFill=1;" edge="1" parent="1">
          <mxGeometry width="50" height="50" relative="1" as="geometry">
            <mxPoint x="730" y="250" as="sourcePoint" />
            <mxPoint x="750" y="210" as="targetPoint" />
          </mxGeometry>
        </mxCell>
        <mxCell id="qMw9UD0LHdUUSkF86hwJ-230" value="" style="endArrow=none;html=1;rounded=0;strokeColor=#0a0a0a;strokeWidth=3;" edge="1" parent="1">
          <mxGeometry width="50" height="50" relative="1" as="geometry">
            <mxPoint x="750" y="210" as="sourcePoint" />
            <mxPoint x="790" y="210" as="targetPoint" />
          </mxGeometry>
        </mxCell>
        <mxCell id="qMw9UD0LHdUUSkF86hwJ-231" value="" style="endArrow=none;html=1;rounded=0;strokeColor=#0a0a0a;strokeWidth=3;" edge="1" parent="1">
          <mxGeometry width="50" height="50" relative="1" as="geometry">
            <mxPoint x="810" y="250" as="sourcePoint" />
            <mxPoint x="790" y="210" as="targetPoint" />
          </mxGeometry>
        </mxCell>
        <mxCell id="qMw9UD0LHdUUSkF86hwJ-232" value="" style="endArrow=none;html=1;rounded=0;strokeColor=#0a0a0a;strokeWidth=3;" edge="1" parent="1">
          <mxGeometry width="50" height="50" relative="1" as="geometry">
            <mxPoint x="810" y="250" as="sourcePoint" />
            <mxPoint x="850" y="250" as="targetPoint" />
          </mxGeometry>
        </mxCell>
        <mxCell id="qMw9UD0LHdUUSkF86hwJ-233" value="" style="endArrow=classic;html=1;rounded=0;strokeColor=#0a0a0a;strokeWidth=3;endFill=1;" edge="1" parent="1">
          <mxGeometry width="50" height="50" relative="1" as="geometry">
            <mxPoint x="850" y="250" as="sourcePoint" />
            <mxPoint x="870" y="210" as="targetPoint" />
          </mxGeometry>
        </mxCell>
        <mxCell id="qMw9UD0LHdUUSkF86hwJ-234" value="" style="endArrow=none;html=1;rounded=0;strokeColor=#0a0a0a;strokeWidth=3;" edge="1" parent="1">
          <mxGeometry width="50" height="50" relative="1" as="geometry">
            <mxPoint x="870" y="210" as="sourcePoint" />
            <mxPoint x="910" y="210" as="targetPoint" />
          </mxGeometry>
        </mxCell>
        <mxCell id="qMw9UD0LHdUUSkF86hwJ-235" value="" style="endArrow=none;html=1;rounded=0;strokeColor=#0a0a0a;strokeWidth=3;" edge="1" parent="1">
          <mxGeometry width="50" height="50" relative="1" as="geometry">
            <mxPoint x="570" y="250" as="sourcePoint" />
            <mxPoint x="610" y="250" as="targetPoint" />
          </mxGeometry>
        </mxCell>
        <mxCell id="qMw9UD0LHdUUSkF86hwJ-236" value="" style="endArrow=none;html=1;rounded=0;strokeColor=#0a0a0a;strokeWidth=3;dashed=1;" edge="1" parent="1">
          <mxGeometry width="50" height="50" relative="1" as="geometry">
            <mxPoint x="571" y="210" as="sourcePoint" />
            <mxPoint x="611" y="210" as="targetPoint" />
          </mxGeometry>
        </mxCell>
        <mxCell id="qMw9UD0LHdUUSkF86hwJ-237" value="" style="endArrow=none;html=1;rounded=0;strokeColor=#0a0a0a;strokeWidth=3;dashed=1;" edge="1" parent="1">
          <mxGeometry width="50" height="50" relative="1" as="geometry">
            <mxPoint x="631" y="250" as="sourcePoint" />
            <mxPoint x="611" y="210" as="targetPoint" />
          </mxGeometry>
        </mxCell>
        <mxCell id="qMw9UD0LHdUUSkF86hwJ-238" value="" style="endArrow=none;html=1;rounded=0;strokeColor=#0a0a0a;strokeWidth=3;dashed=1;" edge="1" parent="1">
          <mxGeometry width="50" height="50" relative="1" as="geometry">
            <mxPoint x="631" y="250" as="sourcePoint" />
            <mxPoint x="671" y="250" as="targetPoint" />
          </mxGeometry>
        </mxCell>
        <mxCell id="qMw9UD0LHdUUSkF86hwJ-239" value="" style="endArrow=none;html=1;rounded=0;strokeColor=#0a0a0a;strokeWidth=3;dashed=1;" edge="1" parent="1">
          <mxGeometry width="50" height="50" relative="1" as="geometry">
            <mxPoint x="671" y="250" as="sourcePoint" />
            <mxPoint x="691" y="210" as="targetPoint" />
          </mxGeometry>
        </mxCell>
        <mxCell id="qMw9UD0LHdUUSkF86hwJ-240" value="" style="endArrow=none;html=1;rounded=0;strokeColor=#0a0a0a;strokeWidth=3;dashed=1;" edge="1" parent="1">
          <mxGeometry width="50" height="50" relative="1" as="geometry">
            <mxPoint x="691" y="210" as="sourcePoint" />
            <mxPoint x="731" y="210" as="targetPoint" />
          </mxGeometry>
        </mxCell>
        <mxCell id="qMw9UD0LHdUUSkF86hwJ-241" value="" style="endArrow=none;html=1;rounded=0;strokeColor=#0a0a0a;strokeWidth=3;dashed=1;" edge="1" parent="1">
          <mxGeometry width="50" height="50" relative="1" as="geometry">
            <mxPoint x="751" y="250" as="sourcePoint" />
            <mxPoint x="731" y="210" as="targetPoint" />
          </mxGeometry>
        </mxCell>
        <mxCell id="qMw9UD0LHdUUSkF86hwJ-242" value="" style="endArrow=none;html=1;rounded=0;strokeColor=#0a0a0a;strokeWidth=3;dashed=1;" edge="1" parent="1">
          <mxGeometry width="50" height="50" relative="1" as="geometry">
            <mxPoint x="751" y="250" as="sourcePoint" />
            <mxPoint x="791" y="250" as="targetPoint" />
          </mxGeometry>
        </mxCell>
        <mxCell id="qMw9UD0LHdUUSkF86hwJ-243" value="" style="endArrow=none;html=1;rounded=0;strokeColor=#0a0a0a;strokeWidth=3;dashed=1;" edge="1" parent="1">
          <mxGeometry width="50" height="50" relative="1" as="geometry">
            <mxPoint x="791" y="250" as="sourcePoint" />
            <mxPoint x="811" y="210" as="targetPoint" />
          </mxGeometry>
        </mxCell>
        <mxCell id="qMw9UD0LHdUUSkF86hwJ-244" value="" style="endArrow=none;html=1;rounded=0;strokeColor=#0a0a0a;strokeWidth=3;dashed=1;" edge="1" parent="1">
          <mxGeometry width="50" height="50" relative="1" as="geometry">
            <mxPoint x="811" y="210" as="sourcePoint" />
            <mxPoint x="851" y="210" as="targetPoint" />
          </mxGeometry>
        </mxCell>
        <mxCell id="qMw9UD0LHdUUSkF86hwJ-245" value="" style="endArrow=none;html=1;rounded=0;strokeColor=#0a0a0a;strokeWidth=3;dashed=1;" edge="1" parent="1">
          <mxGeometry width="50" height="50" relative="1" as="geometry">
            <mxPoint x="871" y="250" as="sourcePoint" />
            <mxPoint x="851" y="210" as="targetPoint" />
          </mxGeometry>
        </mxCell>
        <mxCell id="qMw9UD0LHdUUSkF86hwJ-246" value="" style="endArrow=none;html=1;rounded=0;strokeColor=#0a0a0a;strokeWidth=3;dashed=1;" edge="1" parent="1">
          <mxGeometry width="50" height="50" relative="1" as="geometry">
            <mxPoint x="871" y="250" as="sourcePoint" />
            <mxPoint x="911" y="250" as="targetPoint" />
          </mxGeometry>
        </mxCell>
        <mxCell id="qMw9UD0LHdUUSkF86hwJ-252" value="QCK_c" style="text;html=1;align=center;verticalAlign=middle;whiteSpace=wrap;rounded=0;fontStyle=1" vertex="1" parent="1">
          <mxGeometry x="510" y="200" width="60" height="20" as="geometry" />
        </mxCell>
        <mxCell id="qMw9UD0LHdUUSkF86hwJ-253" value="QCK_t" style="text;html=1;align=center;verticalAlign=middle;whiteSpace=wrap;rounded=0;fontStyle=1" vertex="1" parent="1">
          <mxGeometry x="510" y="240" width="60" height="20" as="geometry" />
        </mxCell>
        <mxCell id="qMw9UD0LHdUUSkF86hwJ-254" value="QCS_n" style="text;html=1;align=center;verticalAlign=middle;whiteSpace=wrap;rounded=0;fontColor=#3399FF;fontStyle=1" vertex="1" parent="1">
          <mxGeometry x="510" y="280" width="60" height="20" as="geometry" />
        </mxCell>
        <mxCell id="qMw9UD0LHdUUSkF86hwJ-255" value="QCA[13:0]" style="text;html=1;align=center;verticalAlign=middle;whiteSpace=wrap;rounded=0;fontColor=#FFB570;fontStyle=1" vertex="1" parent="1">
          <mxGeometry x="512" y="340" width="60" height="20" as="geometry" />
        </mxCell>
        <mxCell id="qMw9UD0LHdUUSkF86hwJ-256" value="" style="endArrow=none;dashed=1;html=1;rounded=0;" edge="1" parent="1">
          <mxGeometry width="50" height="50" relative="1" as="geometry">
            <mxPoint x="680" y="422" as="sourcePoint" />
            <mxPoint x="679.66" y="171" as="targetPoint" />
          </mxGeometry>
        </mxCell>
        <mxCell id="qMw9UD0LHdUUSkF86hwJ-257" value="" style="endArrow=none;html=1;rounded=0;strokeColor=#d79b00;strokeWidth=3;fillColor=#ffe6cc;" edge="1" parent="1">
          <mxGeometry width="50" height="50" relative="1" as="geometry">
            <mxPoint x="689.5" y="380" as="sourcePoint" />
            <mxPoint x="669.5" y="340" as="targetPoint" />
          </mxGeometry>
        </mxCell>
        <mxCell id="qMw9UD0LHdUUSkF86hwJ-258" value="" style="endArrow=none;html=1;rounded=0;strokeColor=#d79b00;strokeWidth=3;fillColor=#ffe6cc;" edge="1" parent="1">
          <mxGeometry width="50" height="50" relative="1" as="geometry">
            <mxPoint x="690" y="380" as="sourcePoint" />
            <mxPoint x="790" y="380" as="targetPoint" />
          </mxGeometry>
        </mxCell>
        <mxCell id="qMw9UD0LHdUUSkF86hwJ-261" value="" style="endArrow=none;html=1;rounded=0;strokeColor=#d79b00;strokeWidth=3;fillColor=#ffe6cc;" edge="1" parent="1">
          <mxGeometry width="50" height="50" relative="1" as="geometry">
            <mxPoint x="799" y="364" as="sourcePoint" />
            <mxPoint x="790.5" y="338" as="targetPoint" />
          </mxGeometry>
        </mxCell>
        <mxCell id="qMw9UD0LHdUUSkF86hwJ-262" value="" style="endArrow=none;html=1;rounded=0;strokeColor=#d79b00;strokeWidth=3;fillColor=#ffe6cc;" edge="1" parent="1">
          <mxGeometry width="50" height="50" relative="1" as="geometry">
            <mxPoint x="679.5" y="361" as="sourcePoint" />
            <mxPoint x="694.5" y="339" as="targetPoint" />
          </mxGeometry>
        </mxCell>
        <mxCell id="qMw9UD0LHdUUSkF86hwJ-263" value="" style="endArrow=none;html=1;rounded=0;strokeColor=#d79b00;strokeWidth=3;fillColor=#ffe6cc;" edge="1" parent="1">
          <mxGeometry width="50" height="50" relative="1" as="geometry">
            <mxPoint x="690" y="340" as="sourcePoint" />
            <mxPoint x="790" y="340" as="targetPoint" />
          </mxGeometry>
        </mxCell>
        <mxCell id="qMw9UD0LHdUUSkF86hwJ-266" value="" style="endArrow=none;html=1;rounded=0;strokeColor=#d79b00;strokeWidth=3;fillColor=#ffe6cc;" edge="1" parent="1">
          <mxGeometry width="50" height="50" relative="1" as="geometry">
            <mxPoint x="789.5" y="381" as="sourcePoint" />
            <mxPoint x="809.5" y="341" as="targetPoint" />
          </mxGeometry>
        </mxCell>
        <mxCell id="qMw9UD0LHdUUSkF86hwJ-269" value="" style="endArrow=none;html=1;rounded=0;strokeColor=#d79b00;strokeWidth=3;fillColor=#ffe6cc;" edge="1" parent="1">
          <mxGeometry width="50" height="50" relative="1" as="geometry">
            <mxPoint x="605" y="341" as="sourcePoint" />
            <mxPoint x="670" y="341" as="targetPoint" />
          </mxGeometry>
        </mxCell>
        <mxCell id="qMw9UD0LHdUUSkF86hwJ-270" value="" style="endArrow=none;html=1;rounded=0;strokeColor=#d79b00;strokeWidth=3;fillColor=#ffe6cc;" edge="1" parent="1">
          <mxGeometry width="50" height="50" relative="1" as="geometry">
            <mxPoint x="808" y="341" as="sourcePoint" />
            <mxPoint x="932" y="341" as="targetPoint" />
          </mxGeometry>
        </mxCell>
        <mxCell id="qMw9UD0LHdUUSkF86hwJ-271" value="A +B" style="text;html=1;align=center;verticalAlign=middle;whiteSpace=wrap;rounded=0;fontStyle=1;strokeColor=#d79b00;fillColor=#ffe6cc;" vertex="1" parent="1">
          <mxGeometry x="710" y="351" width="60" height="20" as="geometry" />
        </mxCell>
        <mxCell id="qMw9UD0LHdUUSkF86hwJ-272" value="" style="endArrow=none;html=1;rounded=0;strokeColor=#6c8ebf;strokeWidth=3;fillColor=#dae8fc;" edge="1" parent="1">
          <mxGeometry width="50" height="50" relative="1" as="geometry">
            <mxPoint x="694.5" y="311" as="sourcePoint" />
            <mxPoint x="674.5" y="271" as="targetPoint" />
          </mxGeometry>
        </mxCell>
        <mxCell id="qMw9UD0LHdUUSkF86hwJ-273" value="" style="endArrow=none;html=1;rounded=0;strokeColor=#6c8ebf;strokeWidth=3;fillColor=#dae8fc;" edge="1" parent="1">
          <mxGeometry width="50" height="50" relative="1" as="geometry">
            <mxPoint x="695" y="311" as="sourcePoint" />
            <mxPoint x="795" y="311" as="targetPoint" />
          </mxGeometry>
        </mxCell>
        <mxCell id="qMw9UD0LHdUUSkF86hwJ-274" value="" style="endArrow=none;html=1;rounded=0;strokeColor=#6c8ebf;strokeWidth=3;fillColor=#dae8fc;" edge="1" parent="1">
          <mxGeometry width="50" height="50" relative="1" as="geometry">
            <mxPoint x="794.5" y="312" as="sourcePoint" />
            <mxPoint x="814.5" y="272" as="targetPoint" />
          </mxGeometry>
        </mxCell>
        <mxCell id="qMw9UD0LHdUUSkF86hwJ-275" value="" style="endArrow=none;html=1;rounded=0;strokeColor=#6c8ebf;strokeWidth=3;fillColor=#dae8fc;" edge="1" parent="1">
          <mxGeometry width="50" height="50" relative="1" as="geometry">
            <mxPoint x="610" y="272" as="sourcePoint" />
            <mxPoint x="675" y="272" as="targetPoint" />
          </mxGeometry>
        </mxCell>
        <mxCell id="qMw9UD0LHdUUSkF86hwJ-276" value="" style="endArrow=none;html=1;rounded=0;strokeColor=#6c8ebf;strokeWidth=3;fillColor=#dae8fc;" edge="1" parent="1">
          <mxGeometry width="50" height="50" relative="1" as="geometry">
            <mxPoint x="813" y="272" as="sourcePoint" />
            <mxPoint x="937" y="272" as="targetPoint" />
          </mxGeometry>
        </mxCell>
        <mxCell id="qMw9UD0LHdUUSkF86hwJ-277" value="" style="endArrow=none;html=1;rounded=0;strokeColor=#6c8ebf;strokeWidth=3;fillColor=#dae8fc;" edge="1" parent="1">
          <mxGeometry width="50" height="50" relative="1" as="geometry">
            <mxPoint x="-54.5" y="300.5" as="sourcePoint" />
            <mxPoint x="-74.5" y="260.5" as="targetPoint" />
          </mxGeometry>
        </mxCell>
        <mxCell id="qMw9UD0LHdUUSkF86hwJ-278" value="" style="endArrow=none;html=1;rounded=0;strokeColor=#6c8ebf;strokeWidth=3;fillColor=#dae8fc;" edge="1" parent="1">
          <mxGeometry width="50" height="50" relative="1" as="geometry">
            <mxPoint x="-54" y="300.5" as="sourcePoint" />
            <mxPoint x="61" y="300" as="targetPoint" />
          </mxGeometry>
        </mxCell>
        <mxCell id="qMw9UD0LHdUUSkF86hwJ-279" value="" style="endArrow=none;html=1;rounded=0;strokeColor=#6c8ebf;strokeWidth=3;fillColor=#dae8fc;" edge="1" parent="1">
          <mxGeometry width="50" height="50" relative="1" as="geometry">
            <mxPoint x="45.5" y="301.5" as="sourcePoint" />
            <mxPoint x="65.5" y="261.5" as="targetPoint" />
          </mxGeometry>
        </mxCell>
        <mxCell id="qMw9UD0LHdUUSkF86hwJ-280" value="" style="endArrow=none;html=1;rounded=0;strokeColor=#6c8ebf;strokeWidth=3;fillColor=#dae8fc;" edge="1" parent="1">
          <mxGeometry width="50" height="50" relative="1" as="geometry">
            <mxPoint x="-139" y="261.5" as="sourcePoint" />
            <mxPoint x="-74" y="261.5" as="targetPoint" />
          </mxGeometry>
        </mxCell>
        <mxCell id="qMw9UD0LHdUUSkF86hwJ-281" value="" style="endArrow=none;html=1;rounded=0;strokeColor=#6c8ebf;strokeWidth=3;fillColor=#dae8fc;" edge="1" parent="1">
          <mxGeometry width="50" height="50" relative="1" as="geometry">
            <mxPoint x="51" y="260" as="sourcePoint" />
            <mxPoint x="188" y="261.5" as="targetPoint" />
          </mxGeometry>
        </mxCell>
        <mxCell id="qMw9UD0LHdUUSkF86hwJ-282" value="" style="endArrow=none;html=1;rounded=0;strokeColor=#6c8ebf;strokeWidth=3;fillColor=#dae8fc;" edge="1" parent="1">
          <mxGeometry width="50" height="50" relative="1" as="geometry">
            <mxPoint x="57.5" y="301.5" as="sourcePoint" />
            <mxPoint x="77.5" y="261.5" as="targetPoint" />
          </mxGeometry>
        </mxCell>
        <mxCell id="qMw9UD0LHdUUSkF86hwJ-283" value="" style="endArrow=none;html=1;rounded=0;strokeColor=#6c8ebf;strokeWidth=3;fillColor=#dae8fc;" edge="1" parent="1">
          <mxGeometry width="50" height="50" relative="1" as="geometry">
            <mxPoint x="32.5" y="301.5" as="sourcePoint" />
            <mxPoint x="52.5" y="261.5" as="targetPoint" />
          </mxGeometry>
        </mxCell>
        <mxCell id="qMw9UD0LHdUUSkF86hwJ-284" value="RCD&lt;div&gt;&lt;span style=&quot;font-size: 20px;&quot;&gt;(SDR)&lt;/span&gt;&lt;/div&gt;" style="rounded=0;whiteSpace=wrap;html=1;fillColor=#f5f5f5;fontColor=#333333;strokeColor=#666666;fontStyle=1;fontSize=34;" vertex="1" parent="1">
          <mxGeometry x="290" y="521" width="180" height="191" as="geometry" />
        </mxCell>
        <mxCell id="qMw9UD0LHdUUSkF86hwJ-285" value="" style="endArrow=none;dashed=1;html=1;rounded=0;" edge="1" parent="1">
          <mxGeometry width="50" height="50" relative="1" as="geometry">
            <mxPoint x="-13.5" y="743" as="sourcePoint" />
            <mxPoint x="-13.5" y="493" as="targetPoint" />
          </mxGeometry>
        </mxCell>
        <mxCell id="qMw9UD0LHdUUSkF86hwJ-286" value="" style="endArrow=none;dashed=1;html=1;rounded=0;" edge="1" parent="1">
          <mxGeometry width="50" height="50" relative="1" as="geometry">
            <mxPoint x="46.5" y="743" as="sourcePoint" />
            <mxPoint x="46.5" y="493" as="targetPoint" />
          </mxGeometry>
        </mxCell>
        <mxCell id="qMw9UD0LHdUUSkF86hwJ-287" value="" style="endArrow=none;dashed=1;html=1;rounded=0;" edge="1" parent="1">
          <mxGeometry width="50" height="50" relative="1" as="geometry">
            <mxPoint x="106.5" y="743" as="sourcePoint" />
            <mxPoint x="106.5" y="493" as="targetPoint" />
          </mxGeometry>
        </mxCell>
        <mxCell id="qMw9UD0LHdUUSkF86hwJ-288" value="" style="endArrow=none;dashed=1;html=1;rounded=0;" edge="1" parent="1">
          <mxGeometry width="50" height="50" relative="1" as="geometry">
            <mxPoint x="-133.5" y="743" as="sourcePoint" />
            <mxPoint x="-133.5" y="490" as="targetPoint" />
          </mxGeometry>
        </mxCell>
        <mxCell id="qMw9UD0LHdUUSkF86hwJ-289" value="" style="endArrow=classic;html=1;rounded=0;strokeColor=#0a0a0a;strokeWidth=3;endFill=1;" edge="1" parent="1">
          <mxGeometry width="50" height="50" relative="1" as="geometry">
            <mxPoint x="-143.5" y="571" as="sourcePoint" />
            <mxPoint x="-123.5" y="531" as="targetPoint" />
          </mxGeometry>
        </mxCell>
        <mxCell id="qMw9UD0LHdUUSkF86hwJ-290" value="" style="endArrow=none;html=1;rounded=0;strokeColor=#0a0a0a;strokeWidth=3;" edge="1" parent="1">
          <mxGeometry width="50" height="50" relative="1" as="geometry">
            <mxPoint x="-123.5" y="531" as="sourcePoint" />
            <mxPoint x="-83.5" y="531" as="targetPoint" />
          </mxGeometry>
        </mxCell>
        <mxCell id="qMw9UD0LHdUUSkF86hwJ-291" value="" style="endArrow=none;html=1;rounded=0;strokeColor=#0a0a0a;strokeWidth=3;" edge="1" parent="1">
          <mxGeometry width="50" height="50" relative="1" as="geometry">
            <mxPoint x="-63.5" y="571" as="sourcePoint" />
            <mxPoint x="-83.5" y="531" as="targetPoint" />
          </mxGeometry>
        </mxCell>
        <mxCell id="qMw9UD0LHdUUSkF86hwJ-292" value="" style="endArrow=none;html=1;rounded=0;strokeColor=#0a0a0a;strokeWidth=3;" edge="1" parent="1">
          <mxGeometry width="50" height="50" relative="1" as="geometry">
            <mxPoint x="-63.5" y="571" as="sourcePoint" />
            <mxPoint x="-23.5" y="571" as="targetPoint" />
          </mxGeometry>
        </mxCell>
        <mxCell id="qMw9UD0LHdUUSkF86hwJ-293" value="" style="endArrow=classic;html=1;rounded=0;strokeColor=#0a0a0a;strokeWidth=3;endFill=1;" edge="1" parent="1">
          <mxGeometry width="50" height="50" relative="1" as="geometry">
            <mxPoint x="-23.5" y="571" as="sourcePoint" />
            <mxPoint x="-3.5" y="531" as="targetPoint" />
          </mxGeometry>
        </mxCell>
        <mxCell id="qMw9UD0LHdUUSkF86hwJ-294" value="" style="endArrow=none;html=1;rounded=0;strokeColor=#0a0a0a;strokeWidth=3;" edge="1" parent="1">
          <mxGeometry width="50" height="50" relative="1" as="geometry">
            <mxPoint x="-3.5" y="531" as="sourcePoint" />
            <mxPoint x="36.5" y="531" as="targetPoint" />
          </mxGeometry>
        </mxCell>
        <mxCell id="qMw9UD0LHdUUSkF86hwJ-295" value="" style="endArrow=none;html=1;rounded=0;strokeColor=#0a0a0a;strokeWidth=3;" edge="1" parent="1">
          <mxGeometry width="50" height="50" relative="1" as="geometry">
            <mxPoint x="56.5" y="571" as="sourcePoint" />
            <mxPoint x="36.5" y="531" as="targetPoint" />
          </mxGeometry>
        </mxCell>
        <mxCell id="qMw9UD0LHdUUSkF86hwJ-296" value="" style="endArrow=none;html=1;rounded=0;strokeColor=#0a0a0a;strokeWidth=3;" edge="1" parent="1">
          <mxGeometry width="50" height="50" relative="1" as="geometry">
            <mxPoint x="56.5" y="571" as="sourcePoint" />
            <mxPoint x="96.5" y="571" as="targetPoint" />
          </mxGeometry>
        </mxCell>
        <mxCell id="qMw9UD0LHdUUSkF86hwJ-297" value="" style="endArrow=classic;html=1;rounded=0;strokeColor=#0a0a0a;strokeWidth=3;endFill=1;" edge="1" parent="1">
          <mxGeometry width="50" height="50" relative="1" as="geometry">
            <mxPoint x="96.5" y="571" as="sourcePoint" />
            <mxPoint x="116.5" y="531" as="targetPoint" />
          </mxGeometry>
        </mxCell>
        <mxCell id="qMw9UD0LHdUUSkF86hwJ-299" value="" style="endArrow=none;html=1;rounded=0;strokeColor=#0a0a0a;strokeWidth=3;" edge="1" parent="1">
          <mxGeometry width="50" height="50" relative="1" as="geometry">
            <mxPoint x="-183.5" y="571" as="sourcePoint" />
            <mxPoint x="-143.5" y="571" as="targetPoint" />
          </mxGeometry>
        </mxCell>
        <mxCell id="qMw9UD0LHdUUSkF86hwJ-300" value="" style="endArrow=none;html=1;rounded=0;strokeColor=#0a0a0a;strokeWidth=3;dashed=1;" edge="1" parent="1">
          <mxGeometry width="50" height="50" relative="1" as="geometry">
            <mxPoint x="-182.5" y="531" as="sourcePoint" />
            <mxPoint x="-142.5" y="531" as="targetPoint" />
          </mxGeometry>
        </mxCell>
        <mxCell id="qMw9UD0LHdUUSkF86hwJ-301" value="" style="endArrow=none;html=1;rounded=0;strokeColor=#0a0a0a;strokeWidth=3;dashed=1;" edge="1" parent="1">
          <mxGeometry width="50" height="50" relative="1" as="geometry">
            <mxPoint x="-122.5" y="571" as="sourcePoint" />
            <mxPoint x="-142.5" y="531" as="targetPoint" />
          </mxGeometry>
        </mxCell>
        <mxCell id="qMw9UD0LHdUUSkF86hwJ-302" value="" style="endArrow=none;html=1;rounded=0;strokeColor=#0a0a0a;strokeWidth=3;dashed=1;" edge="1" parent="1">
          <mxGeometry width="50" height="50" relative="1" as="geometry">
            <mxPoint x="-122.5" y="571" as="sourcePoint" />
            <mxPoint x="-82.5" y="571" as="targetPoint" />
          </mxGeometry>
        </mxCell>
        <mxCell id="qMw9UD0LHdUUSkF86hwJ-303" value="" style="endArrow=none;html=1;rounded=0;strokeColor=#0a0a0a;strokeWidth=3;dashed=1;" edge="1" parent="1">
          <mxGeometry width="50" height="50" relative="1" as="geometry">
            <mxPoint x="-82.5" y="571" as="sourcePoint" />
            <mxPoint x="-62.5" y="531" as="targetPoint" />
          </mxGeometry>
        </mxCell>
        <mxCell id="qMw9UD0LHdUUSkF86hwJ-304" value="" style="endArrow=none;html=1;rounded=0;strokeColor=#0a0a0a;strokeWidth=3;dashed=1;" edge="1" parent="1">
          <mxGeometry width="50" height="50" relative="1" as="geometry">
            <mxPoint x="-62.5" y="531" as="sourcePoint" />
            <mxPoint x="-22.5" y="531" as="targetPoint" />
          </mxGeometry>
        </mxCell>
        <mxCell id="qMw9UD0LHdUUSkF86hwJ-305" value="" style="endArrow=none;html=1;rounded=0;strokeColor=#0a0a0a;strokeWidth=3;dashed=1;" edge="1" parent="1">
          <mxGeometry width="50" height="50" relative="1" as="geometry">
            <mxPoint x="-2.5" y="571" as="sourcePoint" />
            <mxPoint x="-22.5" y="531" as="targetPoint" />
          </mxGeometry>
        </mxCell>
        <mxCell id="qMw9UD0LHdUUSkF86hwJ-306" value="" style="endArrow=none;html=1;rounded=0;strokeColor=#0a0a0a;strokeWidth=3;dashed=1;" edge="1" parent="1">
          <mxGeometry width="50" height="50" relative="1" as="geometry">
            <mxPoint x="-2.5" y="571" as="sourcePoint" />
            <mxPoint x="37.5" y="571" as="targetPoint" />
          </mxGeometry>
        </mxCell>
        <mxCell id="qMw9UD0LHdUUSkF86hwJ-307" value="" style="endArrow=none;html=1;rounded=0;strokeColor=#0a0a0a;strokeWidth=3;dashed=1;" edge="1" parent="1">
          <mxGeometry width="50" height="50" relative="1" as="geometry">
            <mxPoint x="37.5" y="571" as="sourcePoint" />
            <mxPoint x="57.5" y="531" as="targetPoint" />
          </mxGeometry>
        </mxCell>
        <mxCell id="qMw9UD0LHdUUSkF86hwJ-308" value="" style="endArrow=none;html=1;rounded=0;strokeColor=#0a0a0a;strokeWidth=3;dashed=1;" edge="1" parent="1">
          <mxGeometry width="50" height="50" relative="1" as="geometry">
            <mxPoint x="57.5" y="531" as="sourcePoint" />
            <mxPoint x="97.5" y="531" as="targetPoint" />
          </mxGeometry>
        </mxCell>
        <mxCell id="qMw9UD0LHdUUSkF86hwJ-309" value="" style="endArrow=none;html=1;rounded=0;strokeColor=#0a0a0a;strokeWidth=3;dashed=1;" edge="1" parent="1">
          <mxGeometry width="50" height="50" relative="1" as="geometry">
            <mxPoint x="117.5" y="571" as="sourcePoint" />
            <mxPoint x="97.5" y="531" as="targetPoint" />
          </mxGeometry>
        </mxCell>
        <mxCell id="qMw9UD0LHdUUSkF86hwJ-311" value="DCK_c" style="text;html=1;align=center;verticalAlign=middle;whiteSpace=wrap;rounded=0;fontStyle=1" vertex="1" parent="1">
          <mxGeometry x="-243.5" y="521" width="60" height="20" as="geometry" />
        </mxCell>
        <mxCell id="qMw9UD0LHdUUSkF86hwJ-312" value="DCK_t" style="text;html=1;align=center;verticalAlign=middle;whiteSpace=wrap;rounded=0;fontStyle=1" vertex="1" parent="1">
          <mxGeometry x="-243.5" y="561" width="60" height="20" as="geometry" />
        </mxCell>
        <mxCell id="qMw9UD0LHdUUSkF86hwJ-313" value="DCS_n" style="text;html=1;align=center;verticalAlign=middle;whiteSpace=wrap;rounded=0;fontColor=#3399FF;fontStyle=1" vertex="1" parent="1">
          <mxGeometry x="-243.5" y="601" width="60" height="20" as="geometry" />
        </mxCell>
        <mxCell id="qMw9UD0LHdUUSkF86hwJ-314" value="DCA[6:0]" style="text;html=1;align=center;verticalAlign=middle;whiteSpace=wrap;rounded=0;fontColor=#FFB570;fontStyle=1" vertex="1" parent="1">
          <mxGeometry x="-241.5" y="661" width="60" height="20" as="geometry" />
        </mxCell>
        <mxCell id="qMw9UD0LHdUUSkF86hwJ-315" value="" style="endArrow=none;dashed=1;html=1;rounded=0;" edge="1" parent="1">
          <mxGeometry width="50" height="50" relative="1" as="geometry">
            <mxPoint x="-73.5" y="743" as="sourcePoint" />
            <mxPoint x="-73.84" y="492" as="targetPoint" />
          </mxGeometry>
        </mxCell>
        <mxCell id="qMw9UD0LHdUUSkF86hwJ-316" value="" style="endArrow=none;html=1;rounded=0;strokeColor=#d79b00;strokeWidth=3;fillColor=#ffe6cc;" edge="1" parent="1">
          <mxGeometry width="50" height="50" relative="1" as="geometry">
            <mxPoint x="-62" y="701" as="sourcePoint" />
            <mxPoint x="-82" y="661" as="targetPoint" />
          </mxGeometry>
        </mxCell>
        <mxCell id="qMw9UD0LHdUUSkF86hwJ-318" value="" style="endArrow=none;html=1;rounded=0;strokeColor=#d79b00;strokeWidth=3;fillColor=#ffe6cc;" edge="1" parent="1">
          <mxGeometry width="50" height="50" relative="1" as="geometry">
            <mxPoint x="36" y="701" as="sourcePoint" />
            <mxPoint x="56" y="661" as="targetPoint" />
          </mxGeometry>
        </mxCell>
        <mxCell id="qMw9UD0LHdUUSkF86hwJ-321" value="" style="endArrow=none;html=1;rounded=0;strokeColor=#d79b00;strokeWidth=3;fillColor=#ffe6cc;" edge="1" parent="1">
          <mxGeometry width="50" height="50" relative="1" as="geometry">
            <mxPoint x="-74" y="682" as="sourcePoint" />
            <mxPoint x="-59" y="660" as="targetPoint" />
          </mxGeometry>
        </mxCell>
        <mxCell id="qMw9UD0LHdUUSkF86hwJ-322" value="" style="endArrow=none;html=1;rounded=0;strokeColor=#d79b00;strokeWidth=3;fillColor=#ffe6cc;" edge="1" parent="1">
          <mxGeometry width="50" height="50" relative="1" as="geometry">
            <mxPoint x="-60" y="660" as="sourcePoint" />
            <mxPoint x="37" y="660" as="targetPoint" />
          </mxGeometry>
        </mxCell>
        <mxCell id="qMw9UD0LHdUUSkF86hwJ-323" value="" style="endArrow=none;html=1;rounded=0;strokeColor=#d79b00;strokeWidth=3;fillColor=#ffe6cc;" edge="1" parent="1">
          <mxGeometry width="50" height="50" relative="1" as="geometry">
            <mxPoint x="56" y="701" as="sourcePoint" />
            <mxPoint x="36" y="661" as="targetPoint" />
          </mxGeometry>
        </mxCell>
        <mxCell id="qMw9UD0LHdUUSkF86hwJ-326" value="A" style="text;html=1;align=center;verticalAlign=middle;whiteSpace=wrap;rounded=0;fontStyle=1;strokeColor=#d79b00;fillColor=#ffe6cc;" vertex="1" parent="1">
          <mxGeometry x="-33" y="670" width="40" height="20" as="geometry" />
        </mxCell>
        <mxCell id="qMw9UD0LHdUUSkF86hwJ-328" value="" style="endArrow=none;html=1;rounded=0;strokeColor=#d79b00;strokeWidth=3;fillColor=#ffe6cc;" edge="1" parent="1">
          <mxGeometry width="50" height="50" relative="1" as="geometry">
            <mxPoint x="-176.5" y="662" as="sourcePoint" />
            <mxPoint x="-81.5" y="662" as="targetPoint" />
          </mxGeometry>
        </mxCell>
        <mxCell id="qMw9UD0LHdUUSkF86hwJ-329" value="" style="endArrow=none;html=1;rounded=0;strokeColor=#d79b00;strokeWidth=3;fillColor=#ffe6cc;" edge="1" parent="1">
          <mxGeometry width="50" height="50" relative="1" as="geometry">
            <mxPoint x="170" y="661" as="sourcePoint" />
            <mxPoint x="234.5" y="661" as="targetPoint" />
          </mxGeometry>
        </mxCell>
        <mxCell id="qMw9UD0LHdUUSkF86hwJ-330" value="" style="endArrow=none;dashed=1;html=1;rounded=0;" edge="1" parent="1">
          <mxGeometry width="50" height="50" relative="1" as="geometry">
            <mxPoint x="740" y="743" as="sourcePoint" />
            <mxPoint x="740" y="493" as="targetPoint" />
          </mxGeometry>
        </mxCell>
        <mxCell id="qMw9UD0LHdUUSkF86hwJ-331" value="" style="endArrow=none;dashed=1;html=1;rounded=0;" edge="1" parent="1">
          <mxGeometry width="50" height="50" relative="1" as="geometry">
            <mxPoint x="800" y="743" as="sourcePoint" />
            <mxPoint x="800" y="493" as="targetPoint" />
          </mxGeometry>
        </mxCell>
        <mxCell id="qMw9UD0LHdUUSkF86hwJ-332" value="" style="endArrow=none;dashed=1;html=1;rounded=0;" edge="1" parent="1">
          <mxGeometry width="50" height="50" relative="1" as="geometry">
            <mxPoint x="860" y="743" as="sourcePoint" />
            <mxPoint x="860" y="493" as="targetPoint" />
          </mxGeometry>
        </mxCell>
        <mxCell id="qMw9UD0LHdUUSkF86hwJ-333" value="" style="endArrow=none;dashed=1;html=1;rounded=0;" edge="1" parent="1">
          <mxGeometry width="50" height="50" relative="1" as="geometry">
            <mxPoint x="620" y="743" as="sourcePoint" />
            <mxPoint x="620" y="490" as="targetPoint" />
          </mxGeometry>
        </mxCell>
        <mxCell id="qMw9UD0LHdUUSkF86hwJ-334" value="" style="endArrow=classic;html=1;rounded=0;strokeColor=#0a0a0a;strokeWidth=3;endFill=1;" edge="1" parent="1">
          <mxGeometry width="50" height="50" relative="1" as="geometry">
            <mxPoint x="610" y="571" as="sourcePoint" />
            <mxPoint x="630" y="531" as="targetPoint" />
          </mxGeometry>
        </mxCell>
        <mxCell id="qMw9UD0LHdUUSkF86hwJ-335" value="" style="endArrow=none;html=1;rounded=0;strokeColor=#0a0a0a;strokeWidth=3;" edge="1" parent="1">
          <mxGeometry width="50" height="50" relative="1" as="geometry">
            <mxPoint x="630" y="531" as="sourcePoint" />
            <mxPoint x="670" y="531" as="targetPoint" />
          </mxGeometry>
        </mxCell>
        <mxCell id="qMw9UD0LHdUUSkF86hwJ-336" value="" style="endArrow=none;html=1;rounded=0;strokeColor=#0a0a0a;strokeWidth=3;" edge="1" parent="1">
          <mxGeometry width="50" height="50" relative="1" as="geometry">
            <mxPoint x="690" y="571" as="sourcePoint" />
            <mxPoint x="670" y="531" as="targetPoint" />
          </mxGeometry>
        </mxCell>
        <mxCell id="qMw9UD0LHdUUSkF86hwJ-337" value="" style="endArrow=none;html=1;rounded=0;strokeColor=#0a0a0a;strokeWidth=3;" edge="1" parent="1">
          <mxGeometry width="50" height="50" relative="1" as="geometry">
            <mxPoint x="690" y="571" as="sourcePoint" />
            <mxPoint x="730" y="571" as="targetPoint" />
          </mxGeometry>
        </mxCell>
        <mxCell id="qMw9UD0LHdUUSkF86hwJ-338" value="" style="endArrow=classic;html=1;rounded=0;strokeColor=#0a0a0a;strokeWidth=3;endFill=1;" edge="1" parent="1">
          <mxGeometry width="50" height="50" relative="1" as="geometry">
            <mxPoint x="730" y="571" as="sourcePoint" />
            <mxPoint x="750" y="531" as="targetPoint" />
          </mxGeometry>
        </mxCell>
        <mxCell id="qMw9UD0LHdUUSkF86hwJ-339" value="" style="endArrow=none;html=1;rounded=0;strokeColor=#0a0a0a;strokeWidth=3;" edge="1" parent="1">
          <mxGeometry width="50" height="50" relative="1" as="geometry">
            <mxPoint x="750" y="531" as="sourcePoint" />
            <mxPoint x="790" y="531" as="targetPoint" />
          </mxGeometry>
        </mxCell>
        <mxCell id="qMw9UD0LHdUUSkF86hwJ-340" value="" style="endArrow=none;html=1;rounded=0;strokeColor=#0a0a0a;strokeWidth=3;" edge="1" parent="1">
          <mxGeometry width="50" height="50" relative="1" as="geometry">
            <mxPoint x="810" y="571" as="sourcePoint" />
            <mxPoint x="790" y="531" as="targetPoint" />
          </mxGeometry>
        </mxCell>
        <mxCell id="qMw9UD0LHdUUSkF86hwJ-341" value="" style="endArrow=none;html=1;rounded=0;strokeColor=#0a0a0a;strokeWidth=3;" edge="1" parent="1">
          <mxGeometry width="50" height="50" relative="1" as="geometry">
            <mxPoint x="810" y="571" as="sourcePoint" />
            <mxPoint x="850" y="571" as="targetPoint" />
          </mxGeometry>
        </mxCell>
        <mxCell id="qMw9UD0LHdUUSkF86hwJ-342" value="" style="endArrow=classic;html=1;rounded=0;strokeColor=#0a0a0a;strokeWidth=3;endFill=1;" edge="1" parent="1">
          <mxGeometry width="50" height="50" relative="1" as="geometry">
            <mxPoint x="850" y="571" as="sourcePoint" />
            <mxPoint x="870" y="531" as="targetPoint" />
          </mxGeometry>
        </mxCell>
        <mxCell id="qMw9UD0LHdUUSkF86hwJ-343" value="" style="endArrow=none;html=1;rounded=0;strokeColor=#0a0a0a;strokeWidth=3;" edge="1" parent="1">
          <mxGeometry width="50" height="50" relative="1" as="geometry">
            <mxPoint x="870" y="531" as="sourcePoint" />
            <mxPoint x="910" y="531" as="targetPoint" />
          </mxGeometry>
        </mxCell>
        <mxCell id="qMw9UD0LHdUUSkF86hwJ-344" value="" style="endArrow=none;html=1;rounded=0;strokeColor=#0a0a0a;strokeWidth=3;" edge="1" parent="1">
          <mxGeometry width="50" height="50" relative="1" as="geometry">
            <mxPoint x="570" y="571" as="sourcePoint" />
            <mxPoint x="610" y="571" as="targetPoint" />
          </mxGeometry>
        </mxCell>
        <mxCell id="qMw9UD0LHdUUSkF86hwJ-345" value="" style="endArrow=none;html=1;rounded=0;strokeColor=#0a0a0a;strokeWidth=3;dashed=1;" edge="1" parent="1">
          <mxGeometry width="50" height="50" relative="1" as="geometry">
            <mxPoint x="571" y="531" as="sourcePoint" />
            <mxPoint x="611" y="531" as="targetPoint" />
          </mxGeometry>
        </mxCell>
        <mxCell id="qMw9UD0LHdUUSkF86hwJ-346" value="" style="endArrow=none;html=1;rounded=0;strokeColor=#0a0a0a;strokeWidth=3;dashed=1;" edge="1" parent="1">
          <mxGeometry width="50" height="50" relative="1" as="geometry">
            <mxPoint x="631" y="571" as="sourcePoint" />
            <mxPoint x="611" y="531" as="targetPoint" />
          </mxGeometry>
        </mxCell>
        <mxCell id="qMw9UD0LHdUUSkF86hwJ-347" value="" style="endArrow=none;html=1;rounded=0;strokeColor=#0a0a0a;strokeWidth=3;dashed=1;" edge="1" parent="1">
          <mxGeometry width="50" height="50" relative="1" as="geometry">
            <mxPoint x="631" y="571" as="sourcePoint" />
            <mxPoint x="671" y="571" as="targetPoint" />
          </mxGeometry>
        </mxCell>
        <mxCell id="qMw9UD0LHdUUSkF86hwJ-348" value="" style="endArrow=none;html=1;rounded=0;strokeColor=#0a0a0a;strokeWidth=3;dashed=1;" edge="1" parent="1">
          <mxGeometry width="50" height="50" relative="1" as="geometry">
            <mxPoint x="671" y="571" as="sourcePoint" />
            <mxPoint x="691" y="531" as="targetPoint" />
          </mxGeometry>
        </mxCell>
        <mxCell id="qMw9UD0LHdUUSkF86hwJ-349" value="" style="endArrow=none;html=1;rounded=0;strokeColor=#0a0a0a;strokeWidth=3;dashed=1;" edge="1" parent="1">
          <mxGeometry width="50" height="50" relative="1" as="geometry">
            <mxPoint x="691" y="531" as="sourcePoint" />
            <mxPoint x="731" y="531" as="targetPoint" />
          </mxGeometry>
        </mxCell>
        <mxCell id="qMw9UD0LHdUUSkF86hwJ-350" value="" style="endArrow=none;html=1;rounded=0;strokeColor=#0a0a0a;strokeWidth=3;dashed=1;" edge="1" parent="1">
          <mxGeometry width="50" height="50" relative="1" as="geometry">
            <mxPoint x="751" y="571" as="sourcePoint" />
            <mxPoint x="731" y="531" as="targetPoint" />
          </mxGeometry>
        </mxCell>
        <mxCell id="qMw9UD0LHdUUSkF86hwJ-351" value="" style="endArrow=none;html=1;rounded=0;strokeColor=#0a0a0a;strokeWidth=3;dashed=1;" edge="1" parent="1">
          <mxGeometry width="50" height="50" relative="1" as="geometry">
            <mxPoint x="751" y="571" as="sourcePoint" />
            <mxPoint x="791" y="571" as="targetPoint" />
          </mxGeometry>
        </mxCell>
        <mxCell id="qMw9UD0LHdUUSkF86hwJ-352" value="" style="endArrow=none;html=1;rounded=0;strokeColor=#0a0a0a;strokeWidth=3;dashed=1;" edge="1" parent="1">
          <mxGeometry width="50" height="50" relative="1" as="geometry">
            <mxPoint x="791" y="571" as="sourcePoint" />
            <mxPoint x="811" y="531" as="targetPoint" />
          </mxGeometry>
        </mxCell>
        <mxCell id="qMw9UD0LHdUUSkF86hwJ-353" value="" style="endArrow=none;html=1;rounded=0;strokeColor=#0a0a0a;strokeWidth=3;dashed=1;" edge="1" parent="1">
          <mxGeometry width="50" height="50" relative="1" as="geometry">
            <mxPoint x="811" y="531" as="sourcePoint" />
            <mxPoint x="851" y="531" as="targetPoint" />
          </mxGeometry>
        </mxCell>
        <mxCell id="qMw9UD0LHdUUSkF86hwJ-354" value="" style="endArrow=none;html=1;rounded=0;strokeColor=#0a0a0a;strokeWidth=3;dashed=1;" edge="1" parent="1">
          <mxGeometry width="50" height="50" relative="1" as="geometry">
            <mxPoint x="871" y="571" as="sourcePoint" />
            <mxPoint x="851" y="531" as="targetPoint" />
          </mxGeometry>
        </mxCell>
        <mxCell id="qMw9UD0LHdUUSkF86hwJ-355" value="" style="endArrow=none;html=1;rounded=0;strokeColor=#0a0a0a;strokeWidth=3;dashed=1;" edge="1" parent="1">
          <mxGeometry width="50" height="50" relative="1" as="geometry">
            <mxPoint x="871" y="571" as="sourcePoint" />
            <mxPoint x="911" y="571" as="targetPoint" />
          </mxGeometry>
        </mxCell>
        <mxCell id="qMw9UD0LHdUUSkF86hwJ-356" value="QCK_c" style="text;html=1;align=center;verticalAlign=middle;whiteSpace=wrap;rounded=0;fontStyle=1" vertex="1" parent="1">
          <mxGeometry x="510" y="521" width="60" height="20" as="geometry" />
        </mxCell>
        <mxCell id="qMw9UD0LHdUUSkF86hwJ-357" value="QCK_t" style="text;html=1;align=center;verticalAlign=middle;whiteSpace=wrap;rounded=0;fontStyle=1" vertex="1" parent="1">
          <mxGeometry x="510" y="561" width="60" height="20" as="geometry" />
        </mxCell>
        <mxCell id="qMw9UD0LHdUUSkF86hwJ-358" value="QCS_n" style="text;html=1;align=center;verticalAlign=middle;whiteSpace=wrap;rounded=0;fontColor=#3399FF;fontStyle=1" vertex="1" parent="1">
          <mxGeometry x="510" y="601" width="60" height="20" as="geometry" />
        </mxCell>
        <mxCell id="qMw9UD0LHdUUSkF86hwJ-359" value="QCA[13:0]" style="text;html=1;align=center;verticalAlign=middle;whiteSpace=wrap;rounded=0;fontColor=#FFB570;fontStyle=1" vertex="1" parent="1">
          <mxGeometry x="512" y="661" width="60" height="20" as="geometry" />
        </mxCell>
        <mxCell id="qMw9UD0LHdUUSkF86hwJ-360" value="" style="endArrow=none;dashed=1;html=1;rounded=0;" edge="1" parent="1">
          <mxGeometry width="50" height="50" relative="1" as="geometry">
            <mxPoint x="680" y="743" as="sourcePoint" />
            <mxPoint x="679.66" y="492" as="targetPoint" />
          </mxGeometry>
        </mxCell>
        <mxCell id="qMw9UD0LHdUUSkF86hwJ-361" value="" style="endArrow=none;html=1;rounded=0;strokeColor=#d79b00;strokeWidth=3;fillColor=#ffe6cc;" edge="1" parent="1">
          <mxGeometry width="50" height="50" relative="1" as="geometry">
            <mxPoint x="689.5" y="701" as="sourcePoint" />
            <mxPoint x="669.5" y="661" as="targetPoint" />
          </mxGeometry>
        </mxCell>
        <mxCell id="qMw9UD0LHdUUSkF86hwJ-362" value="" style="endArrow=none;html=1;rounded=0;strokeColor=#d79b00;strokeWidth=3;fillColor=#ffe6cc;" edge="1" parent="1">
          <mxGeometry width="50" height="50" relative="1" as="geometry">
            <mxPoint x="690" y="701" as="sourcePoint" />
            <mxPoint x="790" y="701" as="targetPoint" />
          </mxGeometry>
        </mxCell>
        <mxCell id="qMw9UD0LHdUUSkF86hwJ-363" value="" style="endArrow=none;html=1;rounded=0;strokeColor=#d79b00;strokeWidth=3;fillColor=#ffe6cc;" edge="1" parent="1">
          <mxGeometry width="50" height="50" relative="1" as="geometry">
            <mxPoint x="799" y="685" as="sourcePoint" />
            <mxPoint x="790.5" y="659" as="targetPoint" />
          </mxGeometry>
        </mxCell>
        <mxCell id="qMw9UD0LHdUUSkF86hwJ-364" value="" style="endArrow=none;html=1;rounded=0;strokeColor=#d79b00;strokeWidth=3;fillColor=#ffe6cc;" edge="1" parent="1">
          <mxGeometry width="50" height="50" relative="1" as="geometry">
            <mxPoint x="679.5" y="682" as="sourcePoint" />
            <mxPoint x="694.5" y="660" as="targetPoint" />
          </mxGeometry>
        </mxCell>
        <mxCell id="qMw9UD0LHdUUSkF86hwJ-365" value="" style="endArrow=none;html=1;rounded=0;strokeColor=#d79b00;strokeWidth=3;fillColor=#ffe6cc;" edge="1" parent="1">
          <mxGeometry width="50" height="50" relative="1" as="geometry">
            <mxPoint x="690" y="661" as="sourcePoint" />
            <mxPoint x="790" y="661" as="targetPoint" />
          </mxGeometry>
        </mxCell>
        <mxCell id="qMw9UD0LHdUUSkF86hwJ-366" value="" style="endArrow=none;html=1;rounded=0;strokeColor=#d79b00;strokeWidth=3;fillColor=#ffe6cc;" edge="1" parent="1">
          <mxGeometry width="50" height="50" relative="1" as="geometry">
            <mxPoint x="789.5" y="702" as="sourcePoint" />
            <mxPoint x="809.5" y="662" as="targetPoint" />
          </mxGeometry>
        </mxCell>
        <mxCell id="qMw9UD0LHdUUSkF86hwJ-367" value="" style="endArrow=none;html=1;rounded=0;strokeColor=#d79b00;strokeWidth=3;fillColor=#ffe6cc;" edge="1" parent="1">
          <mxGeometry width="50" height="50" relative="1" as="geometry">
            <mxPoint x="605" y="662" as="sourcePoint" />
            <mxPoint x="670" y="662" as="targetPoint" />
          </mxGeometry>
        </mxCell>
        <mxCell id="qMw9UD0LHdUUSkF86hwJ-368" value="" style="endArrow=none;html=1;rounded=0;strokeColor=#d79b00;strokeWidth=3;fillColor=#ffe6cc;" edge="1" parent="1">
          <mxGeometry width="50" height="50" relative="1" as="geometry">
            <mxPoint x="808" y="662" as="sourcePoint" />
            <mxPoint x="932" y="662" as="targetPoint" />
          </mxGeometry>
        </mxCell>
        <mxCell id="qMw9UD0LHdUUSkF86hwJ-369" value="A +B" style="text;html=1;align=center;verticalAlign=middle;whiteSpace=wrap;rounded=0;fontStyle=1;strokeColor=#d79b00;fillColor=#ffe6cc;" vertex="1" parent="1">
          <mxGeometry x="710" y="672" width="60" height="20" as="geometry" />
        </mxCell>
        <mxCell id="qMw9UD0LHdUUSkF86hwJ-370" value="" style="endArrow=none;html=1;rounded=0;strokeColor=#6c8ebf;strokeWidth=3;fillColor=#dae8fc;" edge="1" parent="1">
          <mxGeometry width="50" height="50" relative="1" as="geometry">
            <mxPoint x="694.5" y="632" as="sourcePoint" />
            <mxPoint x="674.5" y="592" as="targetPoint" />
          </mxGeometry>
        </mxCell>
        <mxCell id="qMw9UD0LHdUUSkF86hwJ-371" value="" style="endArrow=none;html=1;rounded=0;strokeColor=#6c8ebf;strokeWidth=3;fillColor=#dae8fc;" edge="1" parent="1">
          <mxGeometry width="50" height="50" relative="1" as="geometry">
            <mxPoint x="695" y="632" as="sourcePoint" />
            <mxPoint x="795" y="632" as="targetPoint" />
          </mxGeometry>
        </mxCell>
        <mxCell id="qMw9UD0LHdUUSkF86hwJ-372" value="" style="endArrow=none;html=1;rounded=0;strokeColor=#6c8ebf;strokeWidth=3;fillColor=#dae8fc;" edge="1" parent="1">
          <mxGeometry width="50" height="50" relative="1" as="geometry">
            <mxPoint x="794.5" y="633" as="sourcePoint" />
            <mxPoint x="814.5" y="593" as="targetPoint" />
          </mxGeometry>
        </mxCell>
        <mxCell id="qMw9UD0LHdUUSkF86hwJ-373" value="" style="endArrow=none;html=1;rounded=0;strokeColor=#6c8ebf;strokeWidth=3;fillColor=#dae8fc;" edge="1" parent="1">
          <mxGeometry width="50" height="50" relative="1" as="geometry">
            <mxPoint x="610" y="593" as="sourcePoint" />
            <mxPoint x="675" y="593" as="targetPoint" />
          </mxGeometry>
        </mxCell>
        <mxCell id="qMw9UD0LHdUUSkF86hwJ-374" value="" style="endArrow=none;html=1;rounded=0;strokeColor=#6c8ebf;strokeWidth=3;fillColor=#dae8fc;" edge="1" parent="1">
          <mxGeometry width="50" height="50" relative="1" as="geometry">
            <mxPoint x="813" y="593" as="sourcePoint" />
            <mxPoint x="937" y="593" as="targetPoint" />
          </mxGeometry>
        </mxCell>
        <mxCell id="qMw9UD0LHdUUSkF86hwJ-375" value="" style="endArrow=none;html=1;rounded=0;strokeColor=#6c8ebf;strokeWidth=3;fillColor=#dae8fc;" edge="1" parent="1">
          <mxGeometry width="50" height="50" relative="1" as="geometry">
            <mxPoint x="-59" y="630.5" as="sourcePoint" />
            <mxPoint x="-79" y="590.5" as="targetPoint" />
          </mxGeometry>
        </mxCell>
        <mxCell id="qMw9UD0LHdUUSkF86hwJ-376" value="" style="endArrow=none;html=1;rounded=0;strokeColor=#6c8ebf;strokeWidth=3;fillColor=#dae8fc;" edge="1" parent="1">
          <mxGeometry width="50" height="50" relative="1" as="geometry">
            <mxPoint x="-58.5" y="630.5" as="sourcePoint" />
            <mxPoint x="40" y="630" as="targetPoint" />
          </mxGeometry>
        </mxCell>
        <mxCell id="qMw9UD0LHdUUSkF86hwJ-377" value="" style="endArrow=none;html=1;rounded=0;strokeColor=#6c8ebf;strokeWidth=3;fillColor=#dae8fc;" edge="1" parent="1">
          <mxGeometry width="50" height="50" relative="1" as="geometry">
            <mxPoint x="41" y="631.5" as="sourcePoint" />
            <mxPoint x="61" y="591.5" as="targetPoint" />
          </mxGeometry>
        </mxCell>
        <mxCell id="qMw9UD0LHdUUSkF86hwJ-378" value="" style="endArrow=none;html=1;rounded=0;strokeColor=#6c8ebf;strokeWidth=3;fillColor=#dae8fc;" edge="1" parent="1">
          <mxGeometry width="50" height="50" relative="1" as="geometry">
            <mxPoint x="-143.5" y="591.5" as="sourcePoint" />
            <mxPoint x="-78.5" y="591.5" as="targetPoint" />
          </mxGeometry>
        </mxCell>
        <mxCell id="qMw9UD0LHdUUSkF86hwJ-379" value="" style="endArrow=none;html=1;rounded=0;strokeColor=#6c8ebf;strokeWidth=3;fillColor=#dae8fc;" edge="1" parent="1">
          <mxGeometry width="50" height="50" relative="1" as="geometry">
            <mxPoint x="60" y="590" as="sourcePoint" />
            <mxPoint x="183.5" y="591.5" as="targetPoint" />
          </mxGeometry>
        </mxCell>
        <mxCell id="qMw9UD0LHdUUSkF86hwJ-382" value="" style="endArrow=none;html=1;rounded=0;strokeColor=#0a0a0a;strokeWidth=3;" edge="1" parent="1">
          <mxGeometry width="50" height="50" relative="1" as="geometry">
            <mxPoint x="117" y="532" as="sourcePoint" />
            <mxPoint x="157" y="532" as="targetPoint" />
          </mxGeometry>
        </mxCell>
        <mxCell id="qMw9UD0LHdUUSkF86hwJ-383" value="" style="endArrow=none;html=1;rounded=0;strokeColor=#0a0a0a;strokeWidth=3;" edge="1" parent="1">
          <mxGeometry width="50" height="50" relative="1" as="geometry">
            <mxPoint x="177" y="572" as="sourcePoint" />
            <mxPoint x="157" y="532" as="targetPoint" />
          </mxGeometry>
        </mxCell>
        <mxCell id="qMw9UD0LHdUUSkF86hwJ-384" value="" style="endArrow=none;html=1;rounded=0;strokeColor=#0a0a0a;strokeWidth=3;" edge="1" parent="1">
          <mxGeometry width="50" height="50" relative="1" as="geometry">
            <mxPoint x="177" y="572" as="sourcePoint" />
            <mxPoint x="217" y="572" as="targetPoint" />
          </mxGeometry>
        </mxCell>
        <mxCell id="qMw9UD0LHdUUSkF86hwJ-385" value="" style="endArrow=none;html=1;rounded=0;strokeColor=#0a0a0a;strokeWidth=3;dashed=1;" edge="1" parent="1">
          <mxGeometry width="50" height="50" relative="1" as="geometry">
            <mxPoint x="118" y="572" as="sourcePoint" />
            <mxPoint x="158" y="572" as="targetPoint" />
          </mxGeometry>
        </mxCell>
        <mxCell id="qMw9UD0LHdUUSkF86hwJ-386" value="" style="endArrow=none;html=1;rounded=0;strokeColor=#0a0a0a;strokeWidth=3;dashed=1;" edge="1" parent="1">
          <mxGeometry width="50" height="50" relative="1" as="geometry">
            <mxPoint x="158" y="572" as="sourcePoint" />
            <mxPoint x="178" y="532" as="targetPoint" />
          </mxGeometry>
        </mxCell>
        <mxCell id="qMw9UD0LHdUUSkF86hwJ-387" value="" style="endArrow=none;html=1;rounded=0;strokeColor=#0a0a0a;strokeWidth=3;dashed=1;" edge="1" parent="1">
          <mxGeometry width="50" height="50" relative="1" as="geometry">
            <mxPoint x="178" y="532" as="sourcePoint" />
            <mxPoint x="218" y="532" as="targetPoint" />
          </mxGeometry>
        </mxCell>
        <mxCell id="qMw9UD0LHdUUSkF86hwJ-388" value="" style="endArrow=none;html=1;rounded=0;strokeColor=#d79b00;strokeWidth=3;fillColor=#ffe6cc;" edge="1" parent="1">
          <mxGeometry width="50" height="50" relative="1" as="geometry">
            <mxPoint x="56" y="701" as="sourcePoint" />
            <mxPoint x="150" y="701" as="targetPoint" />
          </mxGeometry>
        </mxCell>
        <mxCell id="qMw9UD0LHdUUSkF86hwJ-389" value="" style="endArrow=none;html=1;rounded=0;strokeColor=#d79b00;strokeWidth=3;fillColor=#ffe6cc;" edge="1" parent="1">
          <mxGeometry width="50" height="50" relative="1" as="geometry">
            <mxPoint x="150" y="702" as="sourcePoint" />
            <mxPoint x="170" y="662" as="targetPoint" />
          </mxGeometry>
        </mxCell>
        <mxCell id="qMw9UD0LHdUUSkF86hwJ-391" value="" style="endArrow=none;html=1;rounded=0;strokeColor=#d79b00;strokeWidth=3;fillColor=#ffe6cc;" edge="1" parent="1">
          <mxGeometry width="50" height="50" relative="1" as="geometry">
            <mxPoint x="159" y="680" as="sourcePoint" />
            <mxPoint x="149.5" y="661" as="targetPoint" />
          </mxGeometry>
        </mxCell>
        <mxCell id="qMw9UD0LHdUUSkF86hwJ-392" value="B" style="text;html=1;align=center;verticalAlign=middle;whiteSpace=wrap;rounded=0;fontStyle=1;strokeColor=#d79b00;fillColor=#ffe6cc;" vertex="1" parent="1">
          <mxGeometry x="87" y="670" width="40" height="20" as="geometry" />
        </mxCell>
        <mxCell id="qMw9UD0LHdUUSkF86hwJ-393" value="" style="endArrow=none;html=1;rounded=0;strokeColor=#d79b00;strokeWidth=3;fillColor=#ffe6cc;" edge="1" parent="1">
          <mxGeometry width="50" height="50" relative="1" as="geometry">
            <mxPoint x="55" y="661" as="sourcePoint" />
            <mxPoint x="149" y="661" as="targetPoint" />
          </mxGeometry>
        </mxCell>
        <mxCell id="qMw9UD0LHdUUSkF86hwJ-394" value="" style="endArrow=none;html=1;rounded=0;strokeColor=#d79b00;strokeWidth=3;fillColor=#ffe6cc;" edge="1" parent="1">
          <mxGeometry width="50" height="50" relative="1" as="geometry">
            <mxPoint x="-61" y="701" as="sourcePoint" />
            <mxPoint x="36" y="701" as="targetPoint" />
          </mxGeometry>
        </mxCell>
      </root>
    </mxGraphModel>
  </diagram>
</mxfile>
